# Blender v2.92.0 OBJ File: ''
# www.blender.org
mtllib head2.mtl
o Sphere
v 0.191609 0.066844 0.074892
v 0.100735 0.017130 0.039373
v 0.058353 0.682870 0.091064
v 0.110994 0.633156 0.173214
v 0.152771 0.555725 0.238408
v 0.184656 0.461527 0.289459
v 0.188835 0.350000 0.294689
v 0.179593 0.241844 0.280266
v 0.152771 0.144275 0.238408
v 0.110994 0.066844 0.173214
v 0.058353 0.017130 0.091064
v -0.006317 0.682870 0.107971
v -0.012016 0.633156 0.205374
v -0.016921 0.561928 0.289457
v -0.035484 0.478351 0.385385
v -0.020443 0.350000 0.349403
v -0.019442 0.241844 0.332302
v -0.030527 0.094241 0.351638
v -0.012047 0.066577 0.205568
v -0.006317 0.017130 0.107971
v -0.068575 0.682870 0.083638
v -0.130437 0.633156 0.159088
v -0.179531 0.555725 0.218966
v -0.217313 0.460951 0.263385
v -0.221912 0.350000 0.270657
v -0.211051 0.241844 0.257410
v -0.179531 0.144275 0.218966
v -0.130437 0.066844 0.159088
v -0.068575 0.017130 0.083637
v -0.104639 0.682870 0.027357
v -0.199035 0.633156 0.052036
v -0.273948 0.555725 0.071621
v -0.322046 0.458156 0.084196
v -0.338619 0.350000 0.088529
v -0.322046 0.241844 0.084196
v -0.273948 0.144275 0.071621
v -0.199035 0.066844 0.052036
v -0.104639 0.017130 0.027357
v -0.100735 0.682870 -0.039373
v -0.191609 0.633156 -0.074892
v -0.263727 0.555725 -0.103080
v -0.310030 0.458156 -0.121178
v -0.325985 0.350000 -0.127414
v -0.310030 0.241844 -0.121178
v -0.263727 0.144275 -0.103080
v -0.191609 0.066844 -0.074892
v -0.100735 0.017130 -0.039373
v -0.000000 0.000000 -0.000000
v -0.000000 0.700000 -0.000000
v -0.058353 0.682870 -0.091064
v -0.110995 0.633156 -0.173214
v -0.152771 0.555725 -0.238408
v -0.179593 0.458156 -0.280266
v -0.188835 0.350000 -0.294689
v -0.179593 0.241844 -0.280266
v -0.152771 0.144275 -0.238408
v -0.110995 0.066844 -0.173214
v -0.058353 0.017130 -0.091064
v 0.006317 0.682870 -0.107971
v 0.012016 0.633156 -0.205374
v 0.016538 0.555725 -0.282673
v 0.019442 0.458156 -0.332302
v 0.020443 0.350000 -0.349403
v 0.019442 0.241844 -0.332302
v 0.016538 0.144275 -0.282673
v 0.012016 0.066844 -0.205374
v 0.006317 0.017130 -0.107971
v 0.068575 0.682870 -0.083638
v 0.130437 0.633156 -0.159088
v 0.179531 0.555725 -0.218966
v 0.211051 0.458156 -0.257410
v 0.221912 0.350000 -0.270657
v 0.211051 0.241844 -0.257410
v 0.179531 0.144275 -0.218966
v 0.130437 0.066844 -0.159088
v 0.068575 0.017130 -0.083638
v 0.104639 0.682870 -0.027357
v 0.199035 0.633156 -0.052036
v 0.273948 0.555725 -0.071622
v 0.322046 0.458156 -0.084196
v 0.338619 0.350000 -0.088529
v 0.322045 0.241844 -0.084196
v 0.273948 0.144275 -0.071622
v 0.199035 0.066844 -0.052036
v 0.104639 0.017130 -0.027357
v 0.100735 0.682870 0.039373
v 0.191609 0.633156 0.074892
v 0.263727 0.555725 0.103080
v 0.310030 0.458156 0.121178
v 0.325984 0.350000 0.127414
v 0.310030 0.241844 0.121177
v 0.263727 0.144275 0.103080
vt 0.690699 0.475197
vt 0.690699 0.575197
vt 0.590699 0.575197
vt 0.590699 0.475197
vt 0.690699 0.775197
vt 0.690699 0.875197
vt 0.590699 0.875197
vt 0.590699 0.775197
vt 0.690699 0.075197
vt 0.690699 0.175197
vt 0.590699 0.175197
vt 0.590699 0.075197
vt 0.690699 0.375197
vt 0.590699 0.375197
vt 0.690699 0.675197
vt 0.590699 0.675197
vt 0.640699 -0.024803
vt 0.690699 0.275197
vt 0.590699 0.275197
vt 0.640699 0.975197
vt 0.490699 0.875197
vt 0.490699 0.775197
vt 0.490699 0.175197
vt 0.490699 0.075197
vt 0.490699 0.475197
vt 0.490699 0.375197
vt 0.490699 0.675197
vt 0.540699 -0.024803
vt 0.490699 0.275197
vt 0.490699 0.575197
vt 0.540699 0.975197
vt 0.390699 0.275197
vt 0.390699 0.175197
vt 0.390699 0.575197
vt 0.390699 0.475197
vt 0.390699 0.875197
vt 0.390699 0.775197
vt 0.390699 0.075197
vt 0.390699 0.375197
vt 0.390699 0.675197
vt 0.440698 -0.024803
vt 0.440698 0.975197
vt 0.290699 0.675197
vt 0.290699 0.575197
vt 0.340698 0.975197
vt 0.290699 0.875197
vt 0.290699 0.275197
vt 0.290699 0.175197
vt 0.290699 0.475197
vt 0.290699 0.775197
vt 0.290699 0.075197
vt 0.290699 0.375197
vt 0.340699 -0.024803
vt 0.190699 0.375197
vt 0.190699 0.275197
vt 0.190699 0.675197
vt 0.190699 0.575197
vt 0.240699 0.975197
vt 0.190699 0.875197
vt 0.190699 0.175197
vt 0.190699 0.475197
vt 0.190699 0.775197
vt 0.190699 0.075197
vt 0.240699 -0.024803
vt 0.090699 0.775197
vt 0.090699 0.675197
vt 0.140699 -0.024803
vt 0.090699 0.075197
vt 0.090699 0.375197
vt 0.090699 0.275197
vt 0.090699 0.575197
vt 0.140699 0.975197
vt 0.090699 0.875197
vt 0.090699 0.175197
vt 0.090699 0.475197
vt -0.009301 0.175197
vt -0.009301 0.075197
vt -0.009301 0.475197
vt -0.009301 0.375197
vt -0.009301 0.775197
vt -0.009301 0.675197
vt 0.040699 -0.024803
vt -0.009301 0.275197
vt -0.009301 0.575197
vt 0.040699 0.975197
vt -0.009301 0.875197
vt 0.990699 0.475197
vt 0.990699 0.575197
vt 0.890699 0.575197
vt 0.890699 0.475197
vt 0.990699 0.775197
vt 0.990699 0.875197
vt 0.890699 0.875197
vt 0.890699 0.775197
vt 0.990699 0.075197
vt 0.990699 0.175197
vt 0.890699 0.175197
vt 0.890699 0.075197
vt 0.990699 0.375197
vt 0.890699 0.375197
vt 0.990699 0.675197
vt 0.890699 0.675197
vt 0.940699 -0.024803
vt 0.990699 0.275197
vt 0.890699 0.275197
vt 0.940699 0.975197
vt 0.840699 0.975197
vt 0.790699 0.875197
vt 0.790699 0.275197
vt 0.790699 0.175197
vt 0.790699 0.575197
vt 0.790699 0.475197
vt 0.790699 0.775197
vt 0.790699 0.075197
vt 0.790699 0.375197
vt 0.790699 0.675197
vt 0.840699 -0.024803
vt 0.740699 0.975197
vt 0.740699 -0.024803
vn 0.7839 0.1038 0.6122
vn 0.3652 0.8815 0.2994
vn 0.3652 -0.8815 0.2994
vn 0.7647 -0.1490 0.6270
vn 0.5603 0.6892 0.4594
vn 0.1270 -0.9864 0.1042
vn 0.6959 -0.4361 0.5706
vn 0.6960 0.4772 0.5365
vn 0.1270 0.9864 0.1042
vn 0.5603 -0.6892 0.4594
vn 0.1194 0.8815 0.4569
vn 0.1207 -0.8822 0.4552
vn 0.2501 -0.1490 0.9567
vn 0.2043 0.7184 0.6650
vn 0.0416 -0.9864 0.1589
vn 0.4086 -0.1459 0.9010
vn 0.3087 0.6197 0.7216
vn 0.0416 0.9864 0.1589
vn 0.3273 -0.8599 0.3917
vn 0.3262 -0.0944 0.9406
vn -0.3776 -0.8691 0.3196
vn -0.4558 -0.1256 0.8812
vn -0.1719 0.8815 0.4398
vn -0.1730 -0.8822 0.4380
vn -0.3600 -0.1490 0.9210
vn -0.2804 0.7184 0.6366
vn -0.0598 -0.9864 0.1530
vn -0.5289 -0.1097 0.8415
vn -0.4075 0.6408 0.6507
vn -0.0598 0.9864 0.1530
vn -0.7544 0.4720 0.4561
vn -0.1383 0.9864 0.0886
vn -0.6101 -0.6892 0.3910
vn -0.8479 0.1094 0.5188
vn -0.3976 0.8815 0.2548
vn -0.3976 -0.8815 0.2548
vn -0.8326 -0.1490 0.5335
vn -0.6101 0.6892 0.3910
vn -0.1383 -0.9864 0.0886
vn -0.7577 -0.4361 0.4855
vn -0.8984 -0.4361 -0.0526
vn -0.8984 0.4361 -0.0526
vn -0.1640 0.9864 -0.0096
vn -0.7234 -0.6892 -0.0423
vn -0.9872 0.1490 -0.0578
vn -0.4714 0.8815 -0.0276
vn -0.4714 -0.8815 -0.0276
vn -0.9872 -0.1490 -0.0578
vn -0.7234 0.6892 -0.0423
vn -0.1640 -0.9864 -0.0096
vn -0.5603 0.6892 -0.4594
vn -0.1270 -0.9864 -0.1042
vn -0.6959 -0.4361 -0.5706
vn -0.6959 0.4361 -0.5706
vn -0.1270 0.9864 -0.1042
vn -0.5603 -0.6892 -0.4594
vn -0.7647 0.1490 -0.6270
vn -0.3652 0.8815 -0.2994
vn -0.3652 -0.8815 -0.2994
vn -0.7647 -0.1490 -0.6270
vn -0.1194 -0.8815 -0.4569
vn -0.2501 -0.1490 -0.9567
vn -0.1833 0.6892 -0.7011
vn -0.0416 -0.9864 -0.1589
vn -0.2276 -0.4361 -0.8706
vn -0.2276 0.4361 -0.8706
vn -0.0416 0.9864 -0.1589
vn -0.1833 -0.6892 -0.7011
vn -0.2501 0.1490 -0.9567
vn -0.1194 0.8815 -0.4569
vn 0.3600 0.1490 -0.9210
vn 0.1719 0.8815 -0.4398
vn 0.1719 -0.8815 -0.4398
vn 0.3600 -0.1490 -0.9210
vn 0.2638 0.6892 -0.6749
vn 0.0598 -0.9864 -0.1530
vn 0.3276 -0.4361 -0.8382
vn 0.3276 0.4361 -0.8382
vn 0.0598 0.9864 -0.1530
vn 0.2638 -0.6892 -0.6749
vn 0.1383 0.9864 -0.0886
vn 0.6101 -0.6892 -0.3910
vn 0.8326 0.1490 -0.5335
vn 0.3976 0.8815 -0.2548
vn 0.3976 -0.8815 -0.2548
vn 0.8326 -0.1490 -0.5335
vn 0.6101 0.6892 -0.3910
vn 0.1383 -0.9864 -0.0886
vn 0.7577 -0.4361 -0.4855
vn 0.7577 0.4361 -0.4855
vn 0.8984 0.4361 0.0526
vn 0.1640 0.9864 0.0096
vn 0.7234 -0.6892 0.0423
vn 0.9872 0.1490 0.0578
vn 0.4714 0.8815 0.0276
vn 0.4714 -0.8815 0.0276
vn 0.9872 -0.1490 0.0578
vn 0.7234 0.6892 0.0423
vn 0.1640 -0.9864 0.0096
vn 0.8984 -0.4361 0.0526
usemtl Material.001
s off
f 90/1/1 89/2/1 6/3/1 7/4/1
f 87/5/2 86/6/2 3/7/2 4/8/2
f 2/9/3 1/10/3 10/11/3 11/12/3
f 91/13/4 90/1/4 7/4/4 8/14/4
f 88/15/5 87/5/5 4/8/5 5/16/5
f 48/17/6 2/9/6 11/12/6
f 92/18/7 91/13/7 8/14/7 9/19/7
f 89/2/8 88/15/8 5/16/8 6/3/8
f 86/6/9 49/20/9 3/7/9
f 1/10/10 92/18/10 9/19/10 10/11/10
f 4/8/11 3/7/11 12/21/11 13/22/11
f 11/12/12 10/11/12 19/23/12 20/24/12
f 8/14/13 7/4/13 16/25/13 17/26/13
f 5/16/14 4/8/14 13/22/14 14/27/14
f 48/28/15 11/12/15 20/24/15
f 9/19/16 8/14/16 17/26/16 18/29/16
f 6/3/17 5/16/17 14/27/17 15/30/17
f 3/7/18 49/31/18 12/21/18
f 10/11/19 9/19/19 18/29/19 19/23/19
f 7/4/20 6/3/20 15/30/20 16/25/20
f 19/23/21 18/29/21 27/32/21 28/33/21
f 16/25/22 15/30/22 24/34/22 25/35/22
f 13/22/23 12/21/23 21/36/23 22/37/23
f 20/24/24 19/23/24 28/33/24 29/38/24
f 17/26/25 16/25/25 25/35/25 26/39/25
f 14/27/26 13/22/26 22/37/26 23/40/26
f 48/41/27 20/24/27 29/38/27
f 18/29/28 17/26/28 26/39/28 27/32/28
f 15/30/29 14/27/29 23/40/29 24/34/29
f 12/21/30 49/42/30 21/36/30
f 24/34/31 23/40/31 32/43/31 33/44/31
f 21/36/32 49/45/32 30/46/32
f 28/33/33 27/32/33 36/47/33 37/48/33
f 25/35/34 24/34/34 33/44/34 34/49/34
f 22/37/35 21/36/35 30/46/35 31/50/35
f 29/38/36 28/33/36 37/48/36 38/51/36
f 26/39/37 25/35/37 34/49/37 35/52/37
f 23/40/38 22/37/38 31/50/38 32/43/38
f 48/53/39 29/38/39 38/51/39
f 27/32/40 26/39/40 35/52/40 36/47/40
f 36/47/41 35/52/41 44/54/41 45/55/41
f 33/44/42 32/43/42 41/56/42 42/57/42
f 30/46/43 49/58/43 39/59/43
f 37/48/44 36/47/44 45/55/44 46/60/44
f 34/49/45 33/44/45 42/57/45 43/61/45
f 31/50/46 30/46/46 39/59/46 40/62/46
f 38/51/47 37/48/47 46/60/47 47/63/47
f 35/52/48 34/49/48 43/61/48 44/54/48
f 32/43/49 31/50/49 40/62/49 41/56/49
f 48/64/50 38/51/50 47/63/50
f 41/56/51 40/62/51 51/65/51 52/66/51
f 48/67/52 47/63/52 58/68/52
f 45/55/53 44/54/53 55/69/53 56/70/53
f 42/57/54 41/56/54 52/66/54 53/71/54
f 39/59/55 49/72/55 50/73/55
f 46/60/56 45/55/56 56/70/56 57/74/56
f 43/61/57 42/57/57 53/71/57 54/75/57
f 40/62/58 39/59/58 50/73/58 51/65/58
f 47/63/59 46/60/59 57/74/59 58/68/59
f 44/54/60 43/61/60 54/75/60 55/69/60
f 58/68/61 57/74/61 66/76/61 67/77/61
f 55/69/62 54/75/62 63/78/62 64/79/62
f 52/66/63 51/65/63 60/80/63 61/81/63
f 48/82/64 58/68/64 67/77/64
f 56/70/65 55/69/65 64/79/65 65/83/65
f 53/71/66 52/66/66 61/81/66 62/84/66
f 50/73/67 49/85/67 59/86/67
f 57/74/68 56/70/68 65/83/68 66/76/68
f 54/75/69 53/71/69 62/84/69 63/78/69
f 51/65/70 50/73/70 59/86/70 60/80/70
f 63/87/71 62/88/71 71/89/71 72/90/71
f 60/91/72 59/92/72 68/93/72 69/94/72
f 67/95/73 66/96/73 75/97/73 76/98/73
f 64/99/74 63/87/74 72/90/74 73/100/74
f 61/101/75 60/91/75 69/94/75 70/102/75
f 48/103/76 67/95/76 76/98/76
f 65/104/77 64/99/77 73/100/77 74/105/77
f 62/88/78 61/101/78 70/102/78 71/89/78
f 59/92/79 49/106/79 68/93/79
f 66/96/80 65/104/80 74/105/80 75/97/80
f 68/93/81 49/107/81 77/108/81
f 75/97/82 74/105/82 83/109/82 84/110/82
f 72/90/83 71/89/83 80/111/83 81/112/83
f 69/94/84 68/93/84 77/108/84 78/113/84
f 76/98/85 75/97/85 84/110/85 85/114/85
f 73/100/86 72/90/86 81/112/86 82/115/86
f 70/102/87 69/94/87 78/113/87 79/116/87
f 48/117/88 76/98/88 85/114/88
f 74/105/89 73/100/89 82/115/89 83/109/89
f 71/89/90 70/102/90 79/116/90 80/111/90
f 80/111/91 79/116/91 88/15/91 89/2/91
f 77/108/92 49/118/92 86/6/92
f 84/110/93 83/109/93 92/18/93 1/10/93
f 81/112/94 80/111/94 89/2/94 90/1/94
f 78/113/95 77/108/95 86/6/95 87/5/95
f 85/114/96 84/110/96 1/10/96 2/9/96
f 82/115/97 81/112/97 90/1/97 91/13/97
f 79/116/98 78/113/98 87/5/98 88/15/98
f 48/119/99 85/114/99 2/9/99
f 83/109/100 82/115/100 91/13/100 92/18/100
